# This file uses centimeters as units for non-parametric coordinates.

mtllib Sword.mtl
g default
v 0.012500 -0.087525 -0.342844
v -0.012500 -0.087525 -0.342844
v 0.012500 0.037508 -0.342844
v -0.012500 0.037508 -0.342844
v 0.012500 0.037508 0.765993
v -0.012500 0.037508 0.765993
v 0.012500 -0.087525 0.765993
v -0.012500 -0.087525 0.765993
v 0.012500 -0.023070 0.919266
v -0.012500 -0.023070 0.919266
v -0.012500 -0.024820 0.919266
v 0.012500 -0.024820 0.919266
v 0.012500 -0.056159 -0.592404
v -0.012500 -0.056159 -0.592404
v 0.012500 -0.025421 -0.591431
v -0.012500 -0.025421 -0.591431
v 0.012500 -0.024377 -0.342458
v -0.012500 -0.024377 -0.342458
v 0.012500 -0.087328 -0.342458
v -0.012500 -0.087328 -0.342458
v 0.012500 -0.024377 -0.396073
v -0.012500 -0.024377 -0.396073
v -0.012500 -0.097692 -0.396073
v 0.012500 -0.097692 -0.396073
v 0.012500 -0.041543 -0.434614
v -0.012500 -0.041543 -0.434614
v -0.012500 -0.125563 -0.434614
v 0.012500 -0.125563 -0.434614
v 0.012500 -0.037671 -0.486618
v -0.012500 -0.037671 -0.486618
v -0.012500 -0.112174 -0.470501
v 0.012500 -0.112174 -0.470501
v 0.012500 -0.020754 -0.501734
v -0.012500 -0.021030 -0.501734
v -0.012500 -0.084850 -0.501734
v 0.012500 -0.084850 -0.501734
v 0.012500 -0.023723 -0.525990
v -0.012500 -0.023723 -0.525990
v -0.012500 -0.127476 -0.525990
v 0.012500 -0.127476 -0.525990
v 0.012500 -0.025421 -0.582476
v -0.012500 -0.025421 -0.582476
v -0.012500 -0.117366 -0.582476
v 0.012500 -0.117366 -0.582476
v -0.012500 -0.127476 -0.555813
v -0.012500 -0.025421 -0.555813
v 0.012500 -0.025421 -0.555813
v 0.012500 -0.127476 -0.555813
v -0.012500 -0.113621 -0.418101
v -0.012500 -0.024377 -0.418101
v 0.012500 -0.024377 -0.418101
v 0.012500 -0.113621 -0.418101
v -0.012500 -0.116685 -0.458409
v -0.012500 -0.047578 -0.458409
v 0.012500 -0.047578 -0.458409
v 0.012500 -0.116685 -0.458409
v -0.012500 -0.024820 -0.342458
v 0.012500 -0.024820 -0.342458
v -0.012500 0.037593 -0.342458
v 0.012500 0.037593 -0.342458
v -0.012500 -0.024820 -0.396073
v 0.012500 -0.024820 -0.396073
v 0.012500 0.052161 -0.396073
v -0.012500 0.052161 -0.396073
v -0.012500 -0.008699 -0.434614
v 0.012500 -0.008699 -0.434614
v 0.012500 0.075321 -0.434614
v -0.012500 0.075321 -0.434614
v -0.012500 -0.009144 -0.486618
v 0.012500 -0.009144 -0.486618
v 0.012500 0.066001 -0.470501
v -0.012500 0.066001 -0.470501
v -0.012500 -0.020937 -0.501734
v 0.012500 -0.020937 -0.501734
v 0.012500 0.039105 -0.501734
v -0.012500 0.039105 -0.501734
v -0.012500 -0.025759 -0.541706
v 0.012500 -0.025759 -0.541706
v 0.012500 0.090233 -0.541927
v -0.012500 0.090182 -0.541927
v 0.012500 0.078388 -0.581629
v 0.012500 -0.026016 -0.591395
v -0.012500 -0.026016 -0.591395
v -0.012500 0.078388 -0.581629
v 0.012500 0.063379 -0.418101
v 0.012500 -0.024820 -0.418101
v -0.012500 -0.024820 -0.418101
v -0.012500 0.063379 -0.418101
v 0.012500 0.069656 -0.458409
v 0.012500 -0.003306 -0.458409
v -0.012500 -0.003306 -0.458409
v -0.012500 0.069656 -0.458409
v 0.012500 0.073935 -0.525627
v 0.012500 -0.023819 -0.525627
v -0.012500 -0.023819 -0.525627
v -0.012500 0.073905 -0.525627
v 0.012500 -0.043971 -0.920750
v -0.012500 -0.043971 -0.920750
v 0.012500 -0.007954 -0.920750
v -0.012500 -0.007954 -0.920750
v 0.012500 0.010952 -0.587952
v -0.012500 0.010952 -0.587952
v 0.012500 -0.055875 -0.592360
v -0.012500 -0.055875 -0.592360
v 0.012500 0.015734 -0.612509
v -0.012500 0.015734 -0.612509
v -0.012500 -0.060942 -0.612509
v 0.012500 -0.060942 -0.612509
v 0.012500 -0.055657 -0.600565
v -0.012500 -0.055657 -0.600565
v -0.012500 0.008127 -0.600565
v 0.012500 0.008127 -0.600565
v 0.012500 0.014423 -0.865830
v -0.012500 0.014423 -0.865830
v -0.012500 -0.061005 -0.865830
v 0.012500 -0.061005 -0.865830
v 0.012500 0.018431 -0.914955
v -0.012500 0.018431 -0.914955
v -0.012500 -0.067351 -0.914955
v 0.012500 -0.067351 -0.914955
v -0.012500 -0.071358 -0.899567
v -0.012500 0.023775 -0.899567
v 0.012500 0.023775 -0.899567
v 0.012500 -0.071358 -0.899567
v -0.012500 -0.071358 -0.879738
v -0.012500 0.022549 -0.879738
v 0.012500 0.022549 -0.879738
v 0.012500 -0.071358 -0.879738
v -0.012500 -0.069903 -0.871853
v -0.012500 0.020926 -0.871853
v 0.012500 0.020926 -0.871853
v 0.012500 -0.069903 -0.871853
vt 0.375000 0.000000
vt 0.625000 0.000000
vt 0.375000 0.250000
vt 0.625000 0.250000
vt 0.375000 0.500000
vt 0.625000 0.500000
vt 0.375000 0.750000
vt 0.625000 0.750000
vt 0.375000 1.000000
vt 0.625000 1.000000
vt 0.875000 0.000000
vt 0.875000 0.250000
vt 0.125000 0.000000
vt 0.125000 0.250000
vt 0.375000 0.500000
vt 0.625000 0.500000
vt 0.625000 0.750000
vt 0.375000 0.750000
vt 0.375000 0.000000
vt 0.625000 0.000000
vt 0.625000 0.250000
vt 0.375000 0.250000
vt 0.375000 0.447069
vt 0.625000 0.447069
vt 0.625000 0.500000
vt 0.375000 0.500000
vt 0.625000 0.750000
vt 0.375000 0.750000
vt 0.625000 0.802931
vt 0.375000 0.802931
vt 0.822069 0.250000
vt 0.822069 0.000000
vt 0.875000 0.000000
vt 0.875000 0.250000
vt 0.125000 0.000000
vt 0.177931 0.000000
vt 0.177931 0.250000
vt 0.125000 0.250000
vt 0.375000 0.409017
vt 0.625000 0.409017
vt 0.625000 0.425322
vt 0.375000 0.425322
vt 0.784017 0.250000
vt 0.784017 0.000000
vt 0.800322 0.000000
vt 0.800322 0.250000
vt 0.375000 0.824678
vt 0.625000 0.824678
vt 0.625000 0.840983
vt 0.375000 0.840983
vt 0.199678 0.250000
vt 0.199678 0.000000
vt 0.215983 0.000000
vt 0.215983 0.250000
vt 0.375000 0.373588
vt 0.625000 0.373588
vt 0.625000 0.385525
vt 0.375000 0.385525
vt 0.748588 0.250000
vt 0.748588 0.000000
vt 0.760525 0.000000
vt 0.760525 0.250000
vt 0.375000 0.864475
vt 0.625000 0.864475
vt 0.625000 0.876412
vt 0.375000 0.876412
vt 0.239475 0.250000
vt 0.239475 0.000000
vt 0.251412 0.000000
vt 0.251412 0.250000
vt 0.375000 0.342753
vt 0.625000 0.342753
vt 0.717753 0.250000
vt 0.717753 0.000000
vt 0.625000 0.907247
vt 0.375000 0.907247
vt 0.282247 0.000000
vt 0.282247 0.250000
vt 0.375000 0.318806
vt 0.625000 0.318806
vt 0.693806 0.250000
vt 0.693806 0.000000
vt 0.625000 0.931194
vt 0.375000 0.931194
vt 0.306194 0.000000
vt 0.306194 0.250000
vt 0.375000 0.263040
vt 0.625000 0.263040
vt 0.625000 0.289361
vt 0.375000 0.289361
vt 0.638040 0.250000
vt 0.638040 0.000000
vt 0.664361 0.000000
vt 0.664361 0.250000
vt 0.375000 0.960639
vt 0.625000 0.960639
vt 0.625000 0.986960
vt 0.375000 0.986960
vt 0.335639 0.250000
vt 0.335639 0.000000
vt 0.361960 0.000000
vt 0.361960 0.250000
vt 0.625000 1.000000
vt 0.375000 1.000000
vt 0.375000 0.447069
vt 0.625000 0.447069
vt 0.625000 0.500000
vt 0.375000 0.500000
vt 0.625000 0.750000
vt 0.375000 0.750000
vt 0.625000 0.802931
vt 0.375000 0.802931
vt 0.822069 0.250000
vt 0.822069 0.000000
vt 0.875000 0.000000
vt 0.875000 0.250000
vt 0.125000 0.000000
vt 0.177931 0.000000
vt 0.177931 0.250000
vt 0.125000 0.250000
vt 0.375000 0.409017
vt 0.625000 0.409017
vt 0.625000 0.425322
vt 0.375000 0.425322
vt 0.784017 0.250000
vt 0.784017 0.000000
vt 0.800322 0.000000
vt 0.800322 0.250000
vt 0.375000 0.824678
vt 0.625000 0.824678
vt 0.625000 0.840983
vt 0.375000 0.840983
vt 0.199678 0.250000
vt 0.199678 0.000000
vt 0.215983 0.000000
vt 0.215983 0.250000
vt 0.375000 0.373588
vt 0.625000 0.373588
vt 0.625000 0.385525
vt 0.375000 0.385525
vt 0.748588 0.250000
vt 0.748588 0.000000
vt 0.760525 0.000000
vt 0.760525 0.250000
vt 0.375000 0.864475
vt 0.625000 0.864475
vt 0.625000 0.876412
vt 0.375000 0.876412
vt 0.239475 0.250000
vt 0.239475 0.000000
vt 0.251412 0.000000
vt 0.251412 0.250000
vt 0.375000 0.342753
vt 0.625000 0.342753
vt 0.717753 0.250000
vt 0.717753 0.000000
vt 0.625000 0.907247
vt 0.375000 0.907247
vt 0.282247 0.000000
vt 0.282247 0.250000
vt 0.375000 0.318806
vt 0.625000 0.318806
vt 0.625000 0.328439
vt 0.375000 0.328439
vt 0.693806 0.250000
vt 0.693806 0.000000
vt 0.703439 0.000000
vt 0.703439 0.250000
vt 0.375000 0.921561
vt 0.625000 0.921561
vt 0.625000 0.931194
vt 0.375000 0.931194
vt 0.296561 0.250000
vt 0.296561 0.000000
vt 0.306194 0.000000
vt 0.306194 0.250000
vt 0.664361 0.250000
vt 0.664361 0.000000
vt 0.375000 0.289361
vt 0.625000 0.289361
vt 0.335639 0.000000
vt 0.335639 0.250000
vt 0.625000 0.960639
vt 0.375000 0.960639
vt 0.375000 0.000000
vt 0.625000 0.000000
vt 0.625000 0.250000
vt 0.375000 0.250000
vt 0.375000 0.482094
vt 0.625000 0.482094
vt 0.625000 0.491087
vt 0.375000 0.491087
vt 0.375000 0.500000
vt 0.625000 0.500000
vt 0.625000 0.750000
vt 0.375000 0.750000
vt 0.375000 0.758913
vt 0.625000 0.758913
vt 0.625000 0.767906
vt 0.375000 0.767906
vt 0.857094 0.250000
vt 0.857094 0.000000
vt 0.866087 0.000000
vt 0.866087 0.250000
vt 0.133913 0.250000
vt 0.133913 0.000000
vt 0.142906 0.000000
vt 0.142906 0.250000
vt 0.375000 0.291352
vt 0.625000 0.291352
vt 0.666352 0.250000
vt 0.666352 0.000000
vt 0.625000 0.958648
vt 0.375000 0.958648
vt 0.333648 0.000000
vt 0.333648 0.250000
vt 0.875000 0.000000
vt 0.875000 0.250000
vt 0.125000 0.000000
vt 0.125000 0.250000
vt 0.375000 0.254362
vt 0.625000 0.254362
vt 0.625000 0.265949
vt 0.375000 0.265949
vt 0.629362 0.250000
vt 0.629362 0.000000
vt 0.640949 0.000000
vt 0.640949 0.250000
vt 0.375000 0.984051
vt 0.625000 0.984051
vt 0.625000 0.995638
vt 0.375000 0.995638
vt 0.359051 0.250000
vt 0.359051 0.000000
vt 0.370638 0.000000
vt 0.370638 0.250000
vt 0.625000 1.000000
vt 0.375000 1.000000
vt 0.655879 0.000000
vt 0.655879 0.250000
vt 0.625000 0.280879
vt 0.375000 0.280879
vt 0.344121 0.250000
vt 0.344121 0.000000
vt 0.375000 0.969121
vt 0.625000 0.969121
vt 0.661817 0.000000
vt 0.661817 0.250000
vt 0.625000 0.286817
vt 0.375000 0.286817
vt 0.338183 0.250000
vt 0.338183 0.000000
vt 0.375000 0.963183
vt 0.625000 0.963183
vn -0.000000 0.000000 -1.000000
vn -0.000000 0.000000 -1.000000
vn -0.000000 0.000000 -1.000000
vn -0.000000 0.000000 -1.000000
vn -0.000000 1.000000 0.000000
vn -0.000000 1.000000 0.000000
vn 0.000000 0.998850 0.047943
vn 0.000000 0.998850 0.047943
vn 0.000000 0.000000 1.000000
vn 0.000000 0.000000 1.000000
vn 0.000000 0.000000 1.000000
vn 0.000000 0.000000 1.000000
vn 0.000000 -0.998768 0.049622
vn 0.000000 -0.998768 0.049622
vn 0.000000 -1.000000 0.000000
vn 0.000000 -1.000000 0.000000
vn -1.000000 0.000000 0.000000
vn -1.000000 0.000000 0.000000
vn -1.000000 0.000000 0.000000
vn -1.000000 0.000000 0.000000
vn 1.000000 0.000000 -0.000000
vn 1.000000 0.000000 -0.000000
vn 1.000000 0.000000 -0.000000
vn 1.000000 0.000000 -0.000000
vn 0.000000 0.929997 0.367567
vn 0.000000 0.929997 0.367567
vn -1.000000 0.000000 0.000000
vn -1.000000 0.000000 0.000000
vn 0.000000 -0.925541 0.378647
vn 0.000000 -0.925541 0.378647
vn 1.000000 0.000000 -0.000000
vn 1.000000 0.000000 -0.000000
vn -0.000000 0.031631 -0.999500
vn -0.000000 0.031631 -0.999500
vn -0.000000 0.031631 -0.999500
vn -0.000000 0.031631 -0.999500
vn -0.000000 1.000000 0.000000
vn -0.000000 1.000000 0.000000
vn -0.000000 1.000000 0.000000
vn -0.000000 1.000000 0.000000
vn 0.000000 0.000000 1.000000
vn 0.000000 0.000000 1.000000
vn 0.000000 0.000000 1.000000
vn 0.000000 0.000000 1.000000
vn 0.000000 -0.981825 0.189789
vn 0.000000 -0.981825 0.189789
vn 0.000000 -0.944567 0.328319
vn 0.000000 -0.944567 0.328319
vn -1.000000 0.000000 0.000000
vn -1.000000 0.000000 0.000000
vn -1.000000 0.000000 0.000000
vn -1.000000 0.000000 0.000000
vn 1.000000 0.000000 -0.000000
vn 1.000000 0.000000 -0.000000
vn 1.000000 0.000000 -0.000000
vn 1.000000 0.000000 -0.000000
vn -0.000000 0.866678 -0.498868
vn -0.000000 0.866678 -0.498868
vn -0.000000 0.913491 -0.406860
vn -0.000000 0.913491 -0.406860
vn -1.000000 0.000000 0.000000
vn -1.000000 0.000000 0.000000
vn -1.000000 0.000000 0.000000
vn -1.000000 0.000000 0.000000
vn 0.000000 -0.810328 0.585976
vn 0.000000 -0.810328 0.585976
vn 0.000000 -0.997122 0.075812
vn 0.000000 -0.997122 0.075812
vn 1.000000 0.000000 -0.000000
vn 1.000000 0.000000 -0.000000
vn 1.000000 0.000000 -0.000000
vn 1.000000 0.000000 -0.000000
vn -0.001636 0.851443 0.524444
vn -0.001636 0.851443 0.524444
vn 0.000000 0.997240 0.074241
vn 0.000000 0.997240 0.074241
vn -1.000000 -0.000000 0.000000
vn -1.000000 -0.000000 0.000000
vn -1.000000 0.000000 0.000000
vn -1.000000 0.000000 0.000000
vn -0.000000 -0.936917 -0.349551
vn -0.000000 -0.936917 -0.349551
vn -0.000000 -0.805841 -0.592132
vn -0.000000 -0.805841 -0.592132
vn 1.000000 0.000000 -0.000000
vn 1.000000 0.000000 -0.000000
vn 1.000000 -0.000000 -0.000000
vn 1.000000 -0.000000 -0.000000
vn -0.005195 0.942959 0.332868
vn -0.005191 0.942202 0.335005
vn -1.000000 -0.000000 0.000000
vn -1.000000 -0.000000 0.000000
vn 0.000000 -0.964018 0.265837
vn 0.000000 -0.964018 0.265837
vn 1.000000 -0.000000 -0.000000
vn 1.000000 -0.000000 -0.000000
vn -0.002463 0.996508 -0.083461
vn -0.002463 0.996508 -0.083461
vn -1.000000 0.000000 0.000000
vn -1.000000 0.000000 0.000000
vn 0.000000 -0.785363 0.619035
vn 0.000000 -0.785363 0.619035
vn 1.000000 0.000000 -0.000000
vn 1.000000 0.000000 -0.000000
vn -0.000000 1.000000 0.000000
vn -0.000000 1.000000 0.000000
vn -0.000000 0.999548 -0.030057
vn -0.000000 0.999548 -0.030057
vn -1.000000 0.000000 0.000000
vn -1.000000 0.000000 0.000000
vn -1.000000 0.000000 0.000000
vn -1.000000 0.000000 0.000000
vn -0.000000 -0.984358 -0.176181
vn -0.000000 -0.984358 -0.176181
vn -0.000000 -0.456495 -0.889726
vn -0.000000 -0.456495 -0.889726
vn 1.000000 0.000000 -0.000000
vn 1.000000 0.000000 -0.000000
vn 1.000000 0.000000 -0.000000
vn 1.000000 0.000000 -0.000000
vn -0.000000 1.000000 0.000000
vn -0.000000 1.000000 0.000000
vn -1.000000 0.000000 0.000000
vn -1.000000 0.000000 0.000000
vn -0.000000 -0.160108 -0.987099
vn -0.000000 -0.160108 -0.987099
vn 1.000000 0.000000 -0.000000
vn 1.000000 0.000000 -0.000000
vn 0.000000 -1.000000 0.000000
vn 0.000000 -1.000000 0.000000
vn 0.000000 -1.000000 0.000000
vn 0.000000 -1.000000 0.000000
vn 0.000000 0.000000 1.000000
vn 0.000000 0.000000 1.000000
vn 0.000000 0.000000 1.000000
vn 0.000000 0.000000 1.000000
vn 0.000000 0.965009 0.262215
vn 0.000000 0.965009 0.262215
vn 0.000000 0.946515 0.322659
vn 0.000000 0.946515 0.322659
vn 1.000000 0.000000 -0.000000
vn 1.000000 0.000000 -0.000000
vn 1.000000 0.000000 -0.000000
vn 1.000000 0.000000 -0.000000
vn -1.000000 0.000000 0.000000
vn -1.000000 0.000000 0.000000
vn -1.000000 0.000000 0.000000
vn -1.000000 0.000000 0.000000
vn -0.000000 -0.882200 -0.470875
vn -0.000000 -0.882200 -0.470875
vn -0.000000 -0.922547 -0.385884
vn -0.000000 -0.922547 -0.385884
vn 1.000000 0.000000 -0.000000
vn 1.000000 0.000000 -0.000000
vn 1.000000 0.000000 -0.000000
vn 1.000000 0.000000 -0.000000
vn 0.000000 0.857150 0.515066
vn 0.000000 0.857150 0.515066
vn 0.000000 0.988092 0.153862
vn 0.000000 0.988092 0.153862
vn -1.000000 0.000000 0.000000
vn -1.000000 0.000000 0.000000
vn -1.000000 0.000000 0.000000
vn -1.000000 0.000000 0.000000
vn 0.000000 -0.926239 0.376937
vn 0.000000 -0.926239 0.376937
vn 0.000000 -0.999963 0.008567
vn 0.000000 -0.999963 0.008567
vn 1.000000 0.000000 -0.000000
vn 1.000000 0.000000 -0.000000
vn 1.000000 0.000000 -0.000000
vn 1.000000 0.000000 -0.000000
vn -0.000000 0.967889 -0.251380
vn -0.000000 0.967889 -0.251380
vn -0.000000 0.817252 -0.576281
vn -0.000000 0.817252 -0.576281
vn -1.000000 0.000000 0.000000
vn -1.000000 0.000000 0.000000
vn -1.000000 0.000000 0.000000
vn -1.000000 0.000000 0.000000
vn 0.000000 -0.935961 0.352104
vn 0.000000 -0.935961 0.352104
vn 1.000000 0.000000 0.000001
vn 1.000000 0.000000 0.000001
vn -0.000260 0.989839 0.142192
vn -0.000260 0.989839 0.142192
vn -1.000000 0.000000 0.000000
vn -1.000000 0.000000 0.000000
vn 0.000000 -0.999443 0.033378
vn 0.000000 -0.999443 0.033378
vn 0.000000 -0.992803 0.119760
vn 0.000000 -0.992803 0.119760
vn 1.000000 -0.000000 -0.000000
vn 1.000000 -0.000000 -0.000000
vn 1.000000 -0.000000 -0.000001
vn 1.000000 -0.000000 -0.000000
vn -0.000630 0.618175 0.786040
vn -0.000631 0.618253 0.785979
vn -0.001194 0.996842 0.079396
vn -0.001194 0.996819 0.079686
vn -1.000000 0.000000 0.000000
vn -1.000000 0.000000 0.000000
vn -1.000000 -0.000000 0.000000
vn -1.000000 -0.000000 0.000000
vn 1.000000 -0.000000 -0.000000
vn 1.000000 -0.000000 -0.000000
vn 0.000000 -0.999987 0.005168
vn 0.000000 -0.999987 0.005168
vn -1.000000 -0.000000 0.000000
vn -1.000000 -0.000000 0.000000
vn -0.000978 0.958429 -0.285330
vn -0.000978 0.958429 -0.285330
vn -0.000000 0.093130 -0.995654
vn -0.000000 0.093130 -0.995654
vn -0.000000 0.093130 -0.995654
vn -0.000000 0.093130 -0.995654
vn -0.000000 0.000000 -1.000000
vn -0.000000 0.000000 -1.000000
vn -0.000000 0.000000 -1.000000
vn -0.000000 0.000000 -1.000000
vn 0.000000 0.999718 0.023730
vn 0.000000 0.999718 0.023730
vn 0.000000 0.981568 0.191115
vn 0.000000 0.981568 0.191115
vn 0.000000 -0.065816 0.997832
vn 0.000000 -0.065816 0.997832
vn 0.000000 -0.065816 0.997832
vn 0.000000 -0.065816 0.997832
vn 0.000000 -0.969807 0.243875
vn 0.000000 -0.969807 0.243875
vn 0.000000 -0.999797 0.020154
vn 0.000000 -0.999797 0.020154
vn -1.000000 0.000000 0.000000
vn -1.000000 0.000000 0.000000
vn -1.000000 0.000000 0.000000
vn -1.000000 0.000000 0.000000
vn 1.000000 -0.000000 -0.000000
vn 1.000000 -0.000000 -0.000000
vn 1.000000 0.000000 -0.000000
vn 1.000000 0.000000 -0.000000
vn 0.000000 0.999800 0.020016
vn 0.000000 0.999800 0.020016
vn -1.000000 0.000000 0.000000
vn -1.000000 0.000000 0.000000
vn 0.000000 -0.999404 0.034535
vn 0.000000 -0.999404 0.034535
vn 1.000000 0.000000 -0.000000
vn 1.000000 0.000000 -0.000000
vn -0.000000 -0.999650 -0.026476
vn -0.000000 -0.999650 -0.026476
vn -1.000000 0.000000 0.000000
vn -1.000000 0.000000 0.000000
vn -0.000000 0.975818 -0.218583
vn -0.000000 0.975818 -0.218583
vn 1.000000 -0.000000 -0.000000
vn 1.000000 -0.000000 -0.000000
vn -0.000000 0.555248 -0.831685
vn -0.000000 0.555248 -0.831685
vn -0.000000 0.993235 -0.116126
vn -0.000000 0.993235 -0.116126
vn -1.000000 0.000000 0.000000
vn -1.000000 0.000000 0.000000
vn -1.000000 0.000000 0.000000
vn -1.000000 0.000000 0.000000
vn -0.000000 -0.993586 -0.113076
vn -0.000000 -0.993586 -0.113076
vn -0.000000 -0.611810 -0.791005
vn -0.000000 -0.611810 -0.791005
vn 1.000000 0.000000 -0.000000
vn 1.000000 0.000000 -0.000000
vn 1.000000 0.000000 -0.000000
vn 1.000000 0.000000 -0.000000
vn -0.000000 0.214500 -0.976724
vn -0.000000 0.214500 -0.976724
vn -1.000000 0.000000 0.000000
vn -1.000000 0.000000 0.000000
vn -0.000000 -0.240568 -0.970632
vn -0.000000 -0.240568 -0.970632
vn 1.000000 0.000000 -0.000000
vn 1.000000 0.000000 -0.000000
vn -1.000000 0.000000 0.000000
vn -1.000000 0.000000 0.000000
vn 0.000000 0.994756 0.102274
vn 0.000000 0.994756 0.102274
vn 1.000000 0.000000 -0.000000
vn 1.000000 0.000000 -0.000000
vn 0.000000 -0.998624 0.052436
vn 0.000000 -0.998624 0.052436
vn -1.000000 0.000000 0.000000
vn -1.000000 0.000000 0.000000
vn 0.000000 0.863449 0.504436
vn 0.000000 0.863449 0.504436
vn 1.000000 0.000000 -0.000000
vn 1.000000 0.000000 -0.000000
vn 0.000000 -0.802140 0.597136
vn 0.000000 -0.802140 0.597136
s off
g pCube6
usemtl initialShadingGroup
f 1/1/1 2/2/2 4/4/3 3/3/4
s 1
f 3/3/5 4/4/6 6/6/7 5/5/8
s off
f 9/15/9 10/16/10 11/17/11 12/18/12
s 2
f 7/7/13 8/8/14 2/10/15 1/9/16
s 3
f 2/2/17 8/11/18 6/12/19 4/4/20
s 4
f 7/13/21 1/1/22 3/3/23 5/14/24
s 1
f 5/5/8 6/6/7 10/16/25 9/15/26
s 3
f 6/6/19 8/8/18 11/17/27 10/16/28
s 2
f 8/8/14 7/7/13 12/18/29 11/17/30
s 4
f 7/7/21 5/5/24 9/15/31 12/18/32
s off
f 13/19/33 14/20/34 16/21/35 15/22/36
s 5
f 21/23/37 22/24/38 18/25/39 17/26/40
s off
f 17/26/41 18/25/42 20/27/43 19/28/44
s 6
f 19/28/45 20/27/46 23/29/47 24/30/48
s 7
f 22/31/49 23/32/50 20/33/51 18/34/52
s 8
f 19/35/53 24/36/54 21/37/55 17/38/56
s 5
f 25/39/57 26/40/58 50/41/59 51/42/60
s 7
f 26/43/61 27/44/62 49/45/63 50/46/64
s 6
f 52/47/65 49/48/66 27/49/67 28/50/68
s 8
f 51/51/69 52/52/70 28/53/71 25/54/72
s 5
f 29/55/73 30/56/74 54/57/75 55/58/76
s 7
f 30/59/77 31/60/78 53/61/79 54/62/80
s 6
f 56/63/81 53/64/82 31/65/83 32/66/84
s 8
f 55/67/85 56/68/86 32/69/87 29/70/88
s 5
f 33/71/89 34/72/90 30/56/74 29/55/73
s 7
f 34/73/91 35/74/92 31/60/78 30/59/77
s 6
f 32/66/84 31/65/83 35/75/93 36/76/94
s 8
f 29/70/88 32/69/87 36/77/95 33/78/96
s 5
f 37/79/97 38/80/98 34/72/90 33/71/89
s 7
f 38/81/99 39/82/100 35/74/92 34/73/91
s 6
f 36/76/94 35/75/93 39/83/101 40/84/102
s 8
f 33/78/96 36/77/95 40/85/103 37/86/104
s 5
f 41/87/105 42/88/106 46/89/107 47/90/108
s 7
f 42/91/109 43/92/110 45/93/111 46/94/112
s 6
f 48/95/113 45/96/114 43/97/115 44/98/116
s 8
f 47/99/117 48/100/118 44/101/119 41/102/120
s 5
f 15/22/121 16/21/122 42/88/106 41/87/105
s 7
f 14/20/123 43/92/110 42/91/109 16/21/124
s 6
f 44/98/116 43/97/115 14/103/125 13/104/126
s 8
f 41/102/120 44/101/119 13/19/127 15/22/128
s 7
f 46/94/112 45/93/111 39/82/100 38/81/99
s 5
f 47/90/108 46/89/107 38/80/98 37/79/97
s 8
f 37/86/104 40/85/103 48/100/118 47/99/117
s 6
f 40/84/102 39/83/101 45/96/114 48/95/113
s 7
f 50/46/64 49/45/63 23/32/50 22/31/49
s 5
f 51/42/60 50/41/59 22/24/38 21/23/37
s 8
f 21/37/55 24/36/54 52/52/70 51/51/69
s 6
f 24/30/48 23/29/47 49/48/66 52/47/65
s 7
f 54/62/80 53/61/79 27/44/62 26/43/61
s 5
f 55/58/76 54/57/75 26/40/58 25/39/57
s 8
f 25/54/72 28/53/71 56/68/86 55/67/85
s 6
f 28/50/68 27/49/67 53/64/82 56/63/81
s 15
f 61/105/129 62/106/130 58/107/131 57/108/132
s off
f 57/108/133 58/107/134 60/109/135 59/110/136
s 16
f 59/110/137 60/109/138 63/111/139 64/112/140
s 17
f 62/113/141 63/114/142 60/115/143 58/116/144
s 18
f 59/117/145 64/118/146 61/119/147 57/120/148
s 15
f 65/121/149 66/122/150 86/123/151 87/124/152
s 17
f 66/125/153 67/126/154 85/127/155 86/128/156
s 16
f 88/129/157 85/130/158 67/131/159 68/132/160
s 18
f 87/133/161 88/134/162 68/135/163 65/136/164
s 15
f 69/137/165 70/138/166 90/139/167 91/140/168
s 17
f 70/141/169 71/142/170 89/143/171 90/144/172
s 16
f 92/145/173 89/146/174 71/147/175 72/148/176
s 18
f 91/149/177 92/150/178 72/151/179 69/152/180
s 15
f 73/153/181 74/154/182 70/138/166 69/137/165
s 17
f 74/155/183 75/156/184 71/142/170 70/141/169
s 16
f 72/148/176 71/147/175 75/157/185 76/158/186
s 18
f 69/152/180 72/151/179 76/159/187 73/160/188
s 15
f 77/161/189 78/162/190 94/163/191 95/164/192
s 17
f 78/165/193 79/166/194 93/167/195 94/168/196
s 16
f 96/169/197 93/170/198 79/171/199 80/172/200
s 18
f 95/173/201 96/174/202 80/175/203 77/176/204
s 17
f 82/177/205 81/178/206 79/166/194 78/165/193
s 15
f 83/179/207 82/180/208 78/162/190 77/161/189
s 18
f 77/176/204 80/175/203 84/181/209 83/182/210
s 16
f 80/172/200 79/171/199 81/183/211 84/184/212
s 17
f 86/128/156 85/127/155 63/114/142 62/113/141
s 15
f 87/124/152 86/123/151 62/106/130 61/105/129
s 18
f 61/119/147 64/118/146 88/134/162 87/133/161
s 16
f 64/112/140 63/111/139 85/130/158 88/129/157
s 17
f 90/144/172 89/143/171 67/126/154 66/125/153
s 15
f 91/140/168 90/139/167 66/122/150 65/121/149
s 18
f 65/136/164 68/135/163 92/150/178 91/149/177
s 16
f 68/132/160 67/131/159 89/146/174 92/145/173
s off
f 82/180/213 83/182/214 84/184/215 81/178/216
s 17
f 94/168/196 93/167/195 75/156/184 74/155/183
s 15
f 95/164/192 94/163/191 74/154/182 73/153/181
s 18
f 73/160/188 76/159/187 96/174/202 95/173/201
s 16
f 76/158/186 75/157/185 93/170/198 96/169/197
s off
f 97/185/217 98/186/218 100/187/219 99/188/220
s 25
f 105/189/221 106/190/222 111/191/223 112/192/224
s off
f 101/193/225 102/194/226 104/195/227 103/196/228
s 26
f 109/197/229 110/198/230 107/199/231 108/200/232
s 27
f 106/201/233 107/202/234 110/203/235 111/204/236
s 28
f 112/205/237 109/206/238 108/207/239 105/208/240
s 25
f 113/209/241 114/210/242 106/190/222 105/189/221
s 27
f 114/211/243 115/212/244 107/202/234 106/201/233
s 26
f 108/200/232 107/199/231 115/213/245 116/214/246
s 28
f 105/208/240 108/207/239 116/215/247 113/216/248
s 26
f 103/196/249 104/195/250 110/198/230 109/197/229
s 27
f 111/204/236 110/203/235 104/217/251 102/218/252
s 25
f 112/192/224 111/191/223 102/194/253 101/193/254
s 28
f 103/219/255 109/206/238 112/205/237 101/220/256
s 25
f 117/221/257 118/222/258 122/223/259 123/224/260
s 27
f 118/225/261 119/226/262 121/227/263 122/228/264
s 26
f 124/229/265 121/230/266 119/231/267 120/232/268
s 28
f 123/233/269 124/234/270 120/235/271 117/236/272
s 25
f 99/188/273 100/187/274 118/222/258 117/221/257
s 27
f 98/186/275 119/226/262 118/225/261 100/187/276
s 26
f 120/232/268 119/231/267 98/237/277 97/238/278
s 28
f 117/236/272 120/235/271 97/185/279 99/188/280
s 27
f 122/228/264 121/227/263 125/239/281 126/240/282
s 25
f 123/224/260 122/223/259 126/241/283 127/242/284
s 28
f 127/243/285 128/244/286 124/234/270 123/233/269
s 26
f 128/245/287 125/246/288 121/230/266 124/229/265
s 27
f 126/240/282 125/239/281 129/247/289 130/248/290
s 25
f 127/242/284 126/241/283 130/249/291 131/250/292
s 28
f 131/251/293 132/252/294 128/244/286 127/243/285
s 26
f 132/253/295 129/254/296 125/246/288 128/245/287
s 27
f 130/248/290 129/247/289 115/212/244 114/211/243
s 25
f 131/250/292 130/249/291 114/210/242 113/209/241
s 28
f 113/216/248 116/215/247 132/252/294 131/251/293
s 26
f 116/214/246 115/213/245 129/254/296 132/253/295
